<svg width="135" height="40" viewBox="0 0 135 40" fill="none" xmlns="http://www.w3.org/2000/svg">
<rect width="135" height="40" rx="6" fill="black"/>
<path d="M32.8837 22.6995C32.9057 20.9855 33.8003 19.4024 35.254 18.5047C34.3328 17.1831 32.845 16.3752 31.2396 16.3248C29.5505 16.1467 27.9131 17.3399 27.0524 17.3399C26.175 17.3399 24.8498 16.3424 23.4228 16.3719C21.5452 16.4329 19.8372 17.4791 18.9238 19.1279C16.9785 22.5108 18.4295 27.4825 20.2929 30.217C21.2252 31.5559 22.3148 33.0516 23.7405 32.9986C25.1357 32.9405 25.6568 32.105 27.3408 32.105C29.0093 32.105 29.4982 32.9986 30.9528 32.9649C32.4499 32.9405 33.3931 31.6199 34.2927 30.2683C34.9626 29.3142 35.478 28.2597 35.82 27.1439C34.0419 26.3885 32.8858 24.6386 32.8837 22.6995Z" fill="white"/>
<path d="M30.1361 14.5266C30.9524 13.5423 31.3545 12.2772 31.2572 11C30.0101 11.1316 28.8581 11.7302 28.0308 12.6767C27.2139 13.6105 26.8001 14.8322 26.8805 16.0727C28.1443 16.0858 29.3442 15.5159 30.1361 14.5266Z" fill="white"/>
<path fill-rule="evenodd" clip-rule="evenodd" d="M45.8577 27.9004H50.54L51.6634 31.1236H53.6805L49.2455 19.1987H47.185L42.75 31.1236H44.7332L45.8577 27.9004ZM50.054 26.4136H46.3425L48.1731 21.1826H48.2243L50.054 26.4136Z" fill="white"/>
<path fill-rule="evenodd" clip-rule="evenodd" d="M59.521 31.2146C61.7689 31.2146 63.2585 29.4788 63.2585 26.777C63.2585 24.0828 61.7602 22.3385 59.4872 22.3385C58.3176 22.3019 57.2219 22.8925 56.6355 23.8755H56.6017V22.4295H54.8223V33.9998H56.6606V29.6935H56.7031C57.2646 30.6828 58.3591 31.2736 59.521 31.2146ZM59.0021 23.8599C60.4318 23.8599 61.3689 25.0171 61.3689 26.7773C61.3689 28.5535 60.4318 29.7022 59.0021 29.7022C57.5975 29.7022 56.6528 28.5291 56.6528 26.7773C56.6528 25.0415 57.5975 23.8599 59.0021 23.8599Z" fill="white"/>
<path fill-rule="evenodd" clip-rule="evenodd" d="M69.3783 31.2146C71.6262 31.2146 73.1158 29.4788 73.1158 26.777C73.1158 24.0828 71.6175 22.3385 69.3445 22.3385C68.1748 22.3019 67.0792 22.8924 66.4928 23.8755H66.459V22.4295H64.6796V33.9998H66.5179V29.6935H66.5604C67.1219 30.6828 68.2164 31.2736 69.3783 31.2146ZM68.8595 23.8599C70.2892 23.8599 71.2262 25.0171 71.2262 26.7773H71.2262C71.2262 28.5535 70.2892 29.7022 68.8595 29.7022C67.4549 29.7022 66.5101 28.5291 66.5101 26.7773C66.5101 25.0415 67.4549 23.8599 68.8595 23.8599Z" fill="white"/>
<path d="M79.6306 27.8011C79.7668 28.9837 80.9502 29.7601 82.5673 29.7601C84.1168 29.7601 85.2316 28.9836 85.2316 27.9174C85.2316 26.9918 84.5592 26.4376 82.9672 26.0577L81.3752 25.6854C79.1196 25.1565 78.0724 24.1325 78.0724 22.4707C78.0724 20.4132 79.9195 19 82.5422 19C85.1378 19 86.9173 20.4132 86.9772 22.4707H85.1214C85.0103 21.2807 83.997 20.5623 82.5161 20.5623C81.0352 20.5623 80.0218 21.2891 80.0218 22.3469C80.0218 23.19 80.6691 23.6861 82.2524 24.0659L83.6057 24.3885C86.1261 24.9671 87.1733 25.9499 87.1733 27.6941C87.1733 29.9251 85.3426 31.3224 82.4311 31.3224C79.7069 31.3224 77.8676 29.9579 77.7488 27.801L79.6306 27.8011Z" fill="white"/>
<path d="M91.1407 20.3726V22.43H92.8438V23.8433H91.1407V28.6363C91.1407 29.3809 91.4817 29.7279 92.2303 29.7279C92.4325 29.7244 92.6344 29.7106 92.8351 29.6866V31.0914C92.4985 31.1524 92.1563 31.1801 91.814 31.1739C90.0008 31.1739 89.2936 30.5127 89.2936 28.8266V23.8433H87.9915V22.43H89.2936V20.3726H91.1407Z" fill="white"/>
<path fill-rule="evenodd" clip-rule="evenodd" d="M98.0775 22.3228C95.4896 22.3228 93.83 24.0417 93.83 26.7772C93.83 29.5202 95.4731 31.2317 98.0775 31.2317C100.683 31.2317 102.326 29.5202 102.326 26.7772C102.326 24.0417 100.674 22.3228 98.0775 22.3228ZM98.0776 23.7935C99.5672 23.7935 100.453 24.901 100.453 26.7775H100.453C100.453 28.6615 99.5672 29.7606 98.0776 29.7606C96.588 29.7606 95.7032 28.6615 95.7032 26.7775C95.7032 24.9094 96.588 23.7935 98.0776 23.7935Z" fill="white"/>
<path d="M103.842 22.4294H105.595V23.9092H105.638C105.882 22.9566 106.781 22.301 107.792 22.3384C108.004 22.3377 108.215 22.3601 108.422 22.405V24.0743C108.154 23.9949 107.875 23.9585 107.596 23.9664C107.055 23.9451 106.532 24.1542 106.164 24.5388C105.796 24.9234 105.619 25.445 105.68 25.9667V31.1236H103.842L103.842 22.4294Z" fill="white"/>
<path fill-rule="evenodd" clip-rule="evenodd" d="M113.041 31.2317C115.067 31.2317 116.65 30.1485 116.898 28.5702L115.152 28.5702C114.817 29.3769 113.976 29.8742 113.084 29.7931C112.415 29.817 111.768 29.5608 111.307 29.0896C110.846 28.6185 110.615 27.9778 110.674 27.3305V27.2227H117V26.6112C117 23.9751 115.442 22.3228 112.964 22.3228C110.445 22.3228 108.819 24.0914 108.819 26.8185C108.819 29.5371 110.436 31.2317 113.041 31.2317ZM115.161 25.9756L110.683 25.9756C110.682 25.3886 110.922 24.8254 111.35 24.411C111.778 23.9966 112.359 23.7655 112.964 23.769C113.564 23.7565 114.142 23.9875 114.559 24.4064C114.976 24.8253 115.194 25.394 115.161 25.9756Z" fill="white"/>
<path d="M43.8018 12.1699V11.3481H44.6543C45.0176 11.3481 45.312 11.2515 45.5376 11.0581C45.7661 10.8647 45.8804 10.6157 45.8804 10.311C45.8804 10.0063 45.7734 9.76611 45.5596 9.59033C45.3486 9.41455 45.0615 9.32666 44.6982 9.32666C44.3291 9.32666 44.0303 9.41748 43.8018 9.59912C43.5762 9.77783 43.4487 10.0254 43.4194 10.3418H42.4878C42.52 9.77344 42.7368 9.3252 43.1382 8.99707C43.5396 8.66895 44.0698 8.50488 44.729 8.50488C45.353 8.50488 45.8628 8.66455 46.2583 8.98389C46.6538 9.30029 46.8516 9.70898 46.8516 10.21C46.8516 10.5645 46.7417 10.8765 46.522 11.146C46.3052 11.4126 46.021 11.5884 45.6694 11.6733V11.7085C46.0942 11.7612 46.4297 11.9282 46.6758 12.2095C46.9219 12.4907 47.0449 12.8467 47.0449 13.2773C47.0449 13.8105 46.8223 14.2573 46.377 14.6177C45.9316 14.9751 45.3765 15.1538 44.7114 15.1538C44.0229 15.1538 43.4604 14.9839 43.0239 14.644C42.5874 14.3042 42.3545 13.8545 42.3252 13.2949H43.2744C43.3037 13.6055 43.4473 13.8545 43.7051 14.042C43.9658 14.2266 44.2998 14.3188 44.707 14.3188C45.1025 14.3188 45.4219 14.2178 45.665 14.0156C45.9111 13.8135 46.0342 13.5513 46.0342 13.229C46.0342 12.8979 45.9141 12.6387 45.6738 12.4512C45.4365 12.2637 45.1055 12.1699 44.6807 12.1699H43.8018ZM49.5015 14.3276C49.8354 14.3276 50.1152 14.2266 50.3408 14.0244C50.5693 13.8193 50.6836 13.5674 50.6836 13.2686V12.9038L49.5454 12.9741C49.2612 12.9946 49.0415 13.0649 48.8862 13.1851C48.7339 13.3022 48.6577 13.4604 48.6577 13.6597C48.6577 13.8618 48.7339 14.0244 48.8862 14.1475C49.0415 14.2676 49.2466 14.3276 49.5015 14.3276ZM49.2378 15.0791C48.7837 15.0791 48.4131 14.9502 48.126 14.6924C47.8418 14.4346 47.6997 14.0991 47.6997 13.686C47.6997 13.2817 47.8491 12.9609 48.1479 12.7236C48.4468 12.4834 48.8701 12.3486 49.418 12.3193L50.6836 12.2446V11.8887C50.6836 11.6309 50.6016 11.4302 50.4375 11.2866C50.2734 11.1401 50.0464 11.0669 49.7563 11.0669C49.4868 11.0669 49.2671 11.127 49.0972 11.2471C48.9302 11.3672 48.8247 11.5327 48.7808 11.7437H47.8843C47.9106 11.3159 48.0952 10.9673 48.438 10.6978C48.7808 10.4282 49.2319 10.2935 49.7915 10.2935C50.3511 10.2935 50.7964 10.4312 51.1274 10.7065C51.4614 10.9819 51.6284 11.3511 51.6284 11.814V15H50.7188V14.2397H50.6968C50.5649 14.4946 50.3643 14.6982 50.0947 14.8506C49.8281 15.0029 49.5425 15.0791 49.2378 15.0791ZM54.5332 11.0669H53.562V12.2798H54.4409C54.9771 12.2798 55.2451 12.0747 55.2451 11.6646C55.2451 11.4741 55.1836 11.3276 55.0605 11.2251C54.9375 11.1196 54.7617 11.0669 54.5332 11.0669ZM54.5024 12.9434H53.562V14.3101H54.6079C54.8774 14.3101 55.0825 14.2529 55.2231 14.1387C55.3638 14.0215 55.4341 13.8516 55.4341 13.6289C55.4341 13.1719 55.1235 12.9434 54.5024 12.9434ZM52.626 15V10.377H54.7266C55.1777 10.377 55.5308 10.4824 55.7856 10.6934C56.0435 10.9014 56.1724 11.1885 56.1724 11.5547C56.1724 11.7949 56.0962 12.0117 55.9438 12.2051C55.7944 12.3955 55.6084 12.5112 55.3857 12.5522V12.5874C55.6846 12.6284 55.9248 12.7471 56.1064 12.9434C56.2881 13.1367 56.3789 13.3784 56.3789 13.6685C56.3789 14.0757 56.2324 14.3994 55.9395 14.6396C55.6494 14.8799 55.2539 15 54.7529 15H52.626ZM58.8442 14.3276C59.1782 14.3276 59.458 14.2266 59.6836 14.0244C59.9121 13.8193 60.0264 13.5674 60.0264 13.2686V12.9038L58.8882 12.9741C58.604 12.9946 58.3843 13.0649 58.229 13.1851C58.0767 13.3022 58.0005 13.4604 58.0005 13.6597C58.0005 13.8618 58.0767 14.0244 58.229 14.1475C58.3843 14.2676 58.5894 14.3276 58.8442 14.3276ZM58.5806 15.0791C58.1265 15.0791 57.7559 14.9502 57.4688 14.6924C57.1846 14.4346 57.0425 14.0991 57.0425 13.686C57.0425 13.2817 57.1919 12.9609 57.4907 12.7236C57.7896 12.4834 58.2129 12.3486 58.7607 12.3193L60.0264 12.2446V11.8887C60.0264 11.6309 59.9443 11.4302 59.7803 11.2866C59.6162 11.1401 59.3892 11.0669 59.0991 11.0669C58.8296 11.0669 58.6099 11.127 58.4399 11.2471C58.2729 11.3672 58.1675 11.5327 58.1235 11.7437H57.2271C57.2534 11.3159 57.438 10.9673 57.7808 10.6978C58.1235 10.4282 58.5747 10.2935 59.1343 10.2935C59.6938 10.2935 60.1392 10.4312 60.4702 10.7065C60.8042 10.9819 60.9712 11.3511 60.9712 11.814V15H60.0615V14.2397H60.0396C59.9077 14.4946 59.707 14.6982 59.4375 14.8506C59.1709 15.0029 58.8853 15.0791 58.5806 15.0791ZM65.0054 15V12.9873H62.9136V15H61.9688V10.377H62.9136V12.2402H65.0054V10.377H65.9502V15H65.0054ZM70.4941 10.377V11.1284H69.0439V15H68.0991V11.1284H66.6489V10.377H70.4941ZM72.6606 14.3276C72.9946 14.3276 73.2744 14.2266 73.5 14.0244C73.7285 13.8193 73.8428 13.5674 73.8428 13.2686V12.9038L72.7046 12.9741C72.4204 12.9946 72.2007 13.0649 72.0454 13.1851C71.8931 13.3022 71.8169 13.4604 71.8169 13.6597C71.8169 13.8618 71.8931 14.0244 72.0454 14.1475C72.2007 14.2676 72.4058 14.3276 72.6606 14.3276ZM72.397 15.0791C71.9429 15.0791 71.5723 14.9502 71.2852 14.6924C71.001 14.4346 70.8589 14.0991 70.8589 13.686C70.8589 13.2817 71.0083 12.9609 71.3071 12.7236C71.606 12.4834 72.0293 12.3486 72.5771 12.3193L73.8428 12.2446V11.8887C73.8428 11.6309 73.7607 11.4302 73.5967 11.2866C73.4326 11.1401 73.2056 11.0669 72.9155 11.0669C72.646 11.0669 72.4263 11.127 72.2563 11.2471C72.0894 11.3672 71.9839 11.5327 71.9399 11.7437H71.0435C71.0698 11.3159 71.2544 10.9673 71.5972 10.6978C71.9399 10.4282 72.3911 10.2935 72.9507 10.2935C73.5103 10.2935 73.9556 10.4312 74.2866 10.7065C74.6206 10.9819 74.7876 11.3511 74.7876 11.814V15H73.8779V14.2397H73.856C73.7241 14.4946 73.5234 14.6982 73.2539 14.8506C72.9873 15.0029 72.7017 15.0791 72.397 15.0791ZM80.127 12.5479L82.1001 15H80.9224L79.2217 12.8687H79.1865V15H78.2505V12.8687H78.2197L76.519 15H75.3589L77.3188 12.5654L75.4116 10.377H76.541L78.2197 12.3545H78.2505V10.377H79.1865V12.3545H79.2217L80.9004 10.377H82.021L80.127 12.5479ZM86.0859 10.377V11.1284H84.6357V15H83.6909V11.1284H82.2407V10.377H86.0859ZM89.4346 11.3921C89.2266 11.1694 88.9585 11.0581 88.6304 11.0581C88.3022 11.0581 88.0298 11.1709 87.813 11.3965C87.5962 11.6191 87.4761 11.9077 87.4526 12.2622H89.7642C89.7524 11.9048 89.6426 11.6147 89.4346 11.3921ZM89.7598 13.6421H90.6606C90.5933 14.0669 90.3765 14.4141 90.0103 14.6836C89.644 14.9531 89.1973 15.0879 88.6699 15.0879C87.9932 15.0879 87.46 14.8755 87.0703 14.4507C86.6836 14.0229 86.4902 13.4429 86.4902 12.7104C86.4902 11.9839 86.6836 11.3994 87.0703 10.957C87.46 10.5146 87.98 10.2935 88.6304 10.2935C89.269 10.2935 89.7759 10.5029 90.1509 10.9219C90.5259 11.3379 90.7134 11.8975 90.7134 12.6006V12.9258H87.4482V12.9829C87.4482 13.3872 87.561 13.7109 87.7866 13.9541C88.0122 14.1973 88.314 14.3188 88.6919 14.3188C88.9585 14.3188 89.187 14.2573 89.3774 14.1343C89.5679 14.0112 89.6953 13.8472 89.7598 13.6421ZM95.2617 11.0669H94.2905V12.2798H95.1694C95.7056 12.2798 95.9736 12.0747 95.9736 11.6646C95.9736 11.4741 95.9121 11.3276 95.7891 11.2251C95.666 11.1196 95.4902 11.0669 95.2617 11.0669ZM95.231 12.9434H94.2905V14.3101H95.3364C95.606 14.3101 95.811 14.2529 95.9517 14.1387C96.0923 14.0215 96.1626 13.8516 96.1626 13.6289C96.1626 13.1719 95.8521 12.9434 95.231 12.9434ZM93.3545 15V10.377H95.4551C95.9062 10.377 96.2593 10.4824 96.5142 10.6934C96.772 10.9014 96.9009 11.1885 96.9009 11.5547C96.9009 11.7949 96.8247 12.0117 96.6724 12.2051C96.5229 12.3955 96.3369 12.5112 96.1143 12.5522V12.5874C96.4131 12.6284 96.6533 12.7471 96.835 12.9434C97.0166 13.1367 97.1074 13.3784 97.1074 13.6685C97.1074 14.0757 96.9609 14.3994 96.668 14.6396C96.3779 14.8799 95.9824 15 95.4814 15H93.3545Z" fill="white"/>
</svg>
