<svg width="135" height="40" viewBox="0 0 135 40" fill="none" xmlns="http://www.w3.org/2000/svg">
<rect width="135" height="40" rx="5" fill="black"/>
<path fill-rule="evenodd" clip-rule="evenodd" d="M5 0H130C132.761 0 135 2.23858 135 5V35C135 37.7614 132.761 40 130 40H5C2.23858 40 0 37.7614 0 35V5C0 2.23858 2.23858 0 5 0ZM134.2 5C134.2 2.6804 132.32 0.8 130 0.8H5C2.6804 0.8 0.8 2.6804 0.8 5V35C0.8 37.3196 2.6804 39.2 5 39.2H130C132.32 39.2 134.2 37.3196 134.2 35V5Z" fill="black"/>
<path fill-rule="evenodd" clip-rule="evenodd" d="M47.74 23.0599V24.8599H52.06C51.9922 25.7077 51.6398 26.5077 51.06 27.1299C50.1836 28.0228 48.9699 28.5025 47.72 28.4499C45.069 28.4499 42.92 26.3009 42.92 23.6499C42.92 20.999 45.069 18.8499 47.72 18.8499C48.9404 18.8318 50.1189 19.2953 51 20.1399L52.27 18.8699C51.066 17.6791 49.4332 17.0231 47.74 17.0499C45.3189 16.9557 43.0404 18.1936 41.8018 20.276C40.5633 22.3584 40.5633 24.9515 41.8018 27.0339C43.0404 29.1163 45.3189 30.3542 47.74 30.2599C49.4702 30.329 51.1475 29.6559 52.35 28.4099C53.4001 27.2564 53.9596 25.7391 53.91 24.1799C53.9136 23.8047 53.8834 23.4298 53.82 23.0599H47.74ZM58.82 21.7499C56.4673 21.7555 54.5645 23.6672 54.57 26.0199C54.5755 28.3727 56.4873 30.2754 58.84 30.2699C61.1927 30.2644 63.0955 28.3527 63.09 25.9999C63.1064 24.8643 62.6612 23.7707 61.8562 22.9694C61.0513 22.1682 59.9555 21.7281 58.82 21.7499ZM63.89 26.0199C63.8845 23.6672 65.7873 21.7555 68.14 21.7499C69.2755 21.7281 70.3713 22.1682 71.1762 22.9694C71.9812 23.7707 72.4264 24.8643 72.41 25.9999C72.4155 28.3527 70.5127 30.2644 68.16 30.2699C65.8073 30.2754 63.8955 28.3727 63.89 26.0199ZM65.632 27.1184C66.0886 28.0743 67.0832 28.6538 68.14 28.5799C68.8033 28.5646 69.4322 28.2819 69.8841 27.7961C70.336 27.3103 70.5725 26.6626 70.54 25.9999C70.5374 24.9406 69.8875 23.9905 68.9012 23.604C67.9148 23.2176 66.7925 23.4733 66.0709 24.249C65.3494 25.0246 65.1753 26.1625 65.632 27.1184ZM56.312 27.1184C56.7686 28.0743 57.7632 28.6538 58.82 28.5799C59.4833 28.5646 60.1122 28.2819 60.5641 27.7961C61.016 27.3103 61.2525 26.6626 61.22 25.9999C61.2174 24.9406 60.5675 23.9905 59.5812 23.604C58.5948 23.2176 57.4725 23.4733 56.7509 24.249C56.0294 25.0246 55.8553 26.1625 56.312 27.1184ZM89.41 21.7499C91.0679 21.811 92.5161 22.8892 93.05 24.4599L93.26 24.8999L87.57 27.2499C87.9244 28.0641 88.7428 28.5766 89.63 28.5399C90.4848 28.5482 91.2801 28.103 91.72 27.3699L93.17 28.3699C92.1371 29.9347 90.1974 30.6327 88.4042 30.0851C86.6111 29.5374 85.3924 27.8748 85.41 25.9999C85.3409 24.8965 85.7316 23.8136 86.4894 23.0085C87.2471 22.2033 88.3043 21.7478 89.41 21.7499ZM87.25 25.8799C87.209 25.2525 87.4224 24.6349 87.8419 24.1665C88.2614 23.698 88.8518 23.4182 89.48 23.3899C90.1387 23.3497 90.7574 23.7083 91.05 24.2999L87.25 25.8799ZM84.5 29.9999H82.63V17.4999H84.5V29.9999ZM79.57 22.6999H79.5C78.9347 22.0561 78.1167 21.691 77.26 21.6999C74.9901 21.81 73.2063 23.6824 73.2063 25.9549C73.2063 28.2275 74.9901 30.0999 77.26 30.2099C78.1184 30.2272 78.9397 29.8605 79.5 29.2099H79.57V29.8199C79.57 31.4499 78.7 32.3199 77.3 32.3199C76.3435 32.2989 75.4943 31.7025 75.15 30.8099L73.53 31.4799C74.1431 33.0199 75.6426 34.0222 77.3 33.9999C79.49 33.9999 81.3 32.7099 81.3 29.5699V21.9999H79.57V22.6999ZM75.0005 26.0049C75.0005 27.3675 76.0601 28.4952 77.42 28.5799C78.0699 28.555 78.6813 28.2651 79.1119 27.7777C79.5426 27.2904 79.7551 26.648 79.7 25.9999C79.7494 25.3542 79.5346 24.7161 79.1048 24.2316C78.675 23.7472 78.067 23.4579 77.42 23.4299C76.0601 23.5147 75.0005 24.6424 75.0005 26.0049ZM101.81 17.4999H97.33V29.9999H99.2V25.2599H101.81C103.263 25.3643 104.652 24.6485 105.41 23.4049C106.168 22.1614 106.168 20.5985 105.41 19.355C104.652 18.1114 103.263 17.3956 101.81 17.4999ZM99.2 23.4999H101.81L101.85 23.5199C102.615 23.5199 103.321 23.1121 103.703 22.4499C104.086 21.7878 104.086 20.9721 103.703 20.3099C103.321 19.6478 102.615 19.2399 101.85 19.2399H99.2V23.4999ZM113.35 21.7099C111.958 21.6241 110.649 22.3751 110.02 23.6199L111.67 24.3099C112.011 23.6959 112.68 23.3394 113.38 23.3999C113.86 23.3439 114.341 23.4829 114.718 23.7857C115.094 24.0884 115.332 24.5295 115.38 25.0099V25.1299C114.779 24.8139 114.109 24.6491 113.43 24.6499C111.65 24.6499 109.83 25.6499 109.83 27.4699C109.866 28.2515 110.216 28.9853 110.803 29.5036C111.389 30.0218 112.16 30.2803 112.94 30.2199C113.895 30.2728 114.805 29.8065 115.32 28.9999H115.38V29.9999H117.18V25.1899C117.18 22.9999 115.52 21.7299 113.39 21.7299L113.35 21.7099ZM111.66 27.4999C111.66 28.2499 112.51 28.5599 113.12 28.5599L113.16 28.5799C114.29 28.5574 115.23 27.703 115.36 26.5799C114.841 26.2903 114.254 26.1453 113.66 26.1599C112.72 26.1599 111.66 26.4999 111.66 27.4999ZM123.74 21.9999L121.6 27.4199H121.54L119.32 21.9999H117.32L120.65 29.5799L118.75 33.7899H120.7L125.82 21.9999H123.74ZM108.8 29.9999H106.94V17.4999H108.8V29.9999Z" fill="white"/>
<path d="M10.44 7.54021C10.1105 7.92983 9.94233 8.43068 9.97 8.94021V31.0602C9.93597 31.5706 10.1049 32.0738 10.44 32.4602L10.51 32.5402L22.9 20.1502V19.8502L10.51 7.47021L10.44 7.54021Z" fill="white"/>
<path d="M10.44 7.54021C10.1105 7.92983 9.94233 8.43068 9.97 8.94021V31.0602C9.93597 31.5706 10.1049 32.0738 10.44 32.4602L10.51 32.5402L22.9 20.1502V19.8502L10.51 7.47021L10.44 7.54021Z" stroke="#979797"/>
<path d="M10.44 7.54021C10.1105 7.92983 9.94233 8.43068 9.97 8.94021V31.0602C9.93597 31.5706 10.1049 32.0738 10.44 32.4602L10.51 32.5402L22.9 20.1502V19.8502L10.51 7.47021L10.44 7.54021Z" stroke="#979797"/>
<path d="M10.44 7.54021C10.1105 7.92983 9.94233 8.43068 9.97 8.94021V31.0602C9.93597 31.5706 10.1049 32.0738 10.44 32.4602L10.51 32.5402L22.9 20.1502V19.8502L10.51 7.47021L10.44 7.54021Z" stroke="black"/>
<path d="M27 24.2802L22.9 20.1502V19.8502L27 15.7202L27.09 15.7802L32 18.5602C33.4 19.3502 33.4 20.6502 32 21.4502L27.11 24.2302L27 24.2802Z" fill="white"/>
<path d="M27 24.2802L22.9 20.1502V19.8502L27 15.7202L27.09 15.7802L32 18.5602C33.4 19.3502 33.4 20.6502 32 21.4502L27.11 24.2302L27 24.2802Z" stroke="#979797"/>
<path d="M27 24.2802L22.9 20.1502V19.8502L27 15.7202L27.09 15.7802L32 18.5602C33.4 19.3502 33.4 20.6502 32 21.4502L27.11 24.2302L27 24.2802Z" stroke="#979797"/>
<path d="M27 24.2802L22.9 20.1502V19.8502L27 15.7202L27.09 15.7802L32 18.5602C33.4 19.3502 33.4 20.6502 32 21.4502L27.11 24.2302L27 24.2802Z" stroke="black"/>
<path d="M27.1199 24.22L22.8999 20L10.4399 32.46C11.023 32.979 11.8932 33.0084 12.5099 32.53L27.1199 24.22Z" fill="white"/>
<path d="M27.1199 24.22L22.8999 20L10.4399 32.46C11.023 32.979 11.8932 33.0084 12.5099 32.53L27.1199 24.22" stroke="#979797"/>
<path d="M27.1199 24.22L22.8999 20L10.4399 32.46C11.023 32.979 11.8932 33.0084 12.5099 32.53L27.1199 24.22" stroke="#979797"/>
<path d="M27.1199 24.22L22.8999 20L10.4399 32.46C11.023 32.979 11.8932 33.0084 12.5099 32.53L27.1199 24.22" stroke="black"/>
<path d="M27.1199 15.78L12.5099 7.47997C11.8969 6.99469 11.0238 7.02 10.4399 7.53997L22.8999 20L27.1199 15.78Z" fill="white"/>
<path d="M27.1199 15.78L12.5099 7.47997C11.8969 6.99469 11.0238 7.02 10.4399 7.53997L22.8999 20L27.1199 15.78Z" stroke="#979797"/>
<path d="M27.1199 15.78L12.5099 7.47997C11.8969 6.99469 11.0238 7.02 10.4399 7.53997L22.8999 20L27.1199 15.78Z" stroke="#979797"/>
<path d="M27.1199 15.78L12.5099 7.47997C11.8969 6.99469 11.0238 7.02 10.4399 7.53997L22.8999 20L27.1199 15.78Z" stroke="black"/>
<path opacity="0.2" d="M26.9999 24.1299L12.5099 32.3799C11.9181 32.8266 11.1018 32.8266 10.5099 32.3799L10.4399 32.4499L10.5099 32.5299C11.1018 32.9766 11.9181 32.9766 12.5099 32.5299L27.1199 24.2199L26.9999 24.1299Z" fill="black"/>
<path opacity="0.12" d="M10.44 32.3202C10.1188 31.9235 9.96134 31.4191 9.99996 30.9102V31.0602C9.96593 31.5705 10.1349 32.0737 10.47 32.4602L10.54 32.3902L10.44 32.3202Z" fill="black"/>
<path opacity="0.12" d="M32 21.3L27 24.13L27.09 24.22L32 21.44C32.5904 21.1904 32.9971 20.6379 33.06 20C32.9332 20.5771 32.5398 21.0596 32 21.3Z" fill="black"/>
<path opacity="0.25" d="M12.51 7.61998L32 18.7C32.5397 18.9403 32.9332 19.4229 33.06 20C32.997 19.3621 32.5904 18.8096 32 18.56L12.51 7.47998C11.12 6.67998 9.96997 7.33998 9.96997 8.93998V9.08998C9.99997 7.48998 11.12 6.82998 12.51 7.61998Z" fill="white"/>
<path d="M45.0254 8.31982C45.0254 7.97998 44.9009 7.71045 44.6519 7.51123C44.4058 7.30908 44.0586 7.20801 43.6104 7.20801C43.2354 7.20801 42.9204 7.31201 42.6655 7.52002C42.4136 7.7251 42.2876 7.97998 42.2876 8.28467H41.4438C41.4438 7.94482 41.5361 7.64014 41.7207 7.37061C41.9082 7.10107 42.1689 6.8916 42.5029 6.74219C42.8369 6.58984 43.2061 6.51367 43.6104 6.51367C44.3252 6.51367 44.8804 6.6748 45.2759 6.99707C45.6714 7.31641 45.8691 7.76172 45.8691 8.33301C45.8691 8.62891 45.7783 8.89844 45.5967 9.1416C45.415 9.38477 45.1616 9.57666 44.8364 9.71729C45.5894 9.96924 45.9658 10.4688 45.9658 11.2158C45.9658 11.79 45.752 12.2456 45.3242 12.5825C44.8965 12.9194 44.3252 13.0879 43.6104 13.0879C43.1855 13.0879 42.7988 13.0132 42.4502 12.8638C42.1045 12.7114 41.835 12.4961 41.6416 12.2178C41.4482 11.9395 41.3516 11.6084 41.3516 11.2246H42.1953C42.1953 11.5615 42.3286 11.8428 42.5952 12.0684C42.8618 12.291 43.2002 12.4023 43.6104 12.4023C44.0703 12.4023 44.4365 12.2954 44.709 12.0815C44.9844 11.8677 45.1221 11.585 45.1221 11.2334C45.1221 10.4834 44.6577 10.1011 43.729 10.0864H42.938V9.39209H43.7246C44.1523 9.3833 44.4761 9.28662 44.6958 9.10205C44.9155 8.91748 45.0254 8.65674 45.0254 8.31982ZM50.6196 11.3301H47.939L47.3369 13H46.4668L48.9102 6.60156H49.6484L52.0962 13H51.2305L50.6196 11.3301ZM48.1938 10.6357H50.3691L49.2793 7.64307L48.1938 10.6357ZM52.9575 13V6.60156H55.0493C55.7437 6.60156 56.2651 6.74512 56.6138 7.03223C56.9653 7.31934 57.1411 7.74414 57.1411 8.30664C57.1411 8.60547 57.0562 8.87061 56.8862 9.10205C56.7163 9.33057 56.4849 9.50781 56.1919 9.63379C56.5376 9.73047 56.8101 9.91504 57.0093 10.1875C57.2114 10.457 57.3125 10.7793 57.3125 11.1543C57.3125 11.7285 57.1265 12.1797 56.7544 12.5078C56.3823 12.8359 55.8564 13 55.1768 13H52.9575ZM53.8013 10.0073V12.3101H55.1943C55.5869 12.3101 55.896 12.209 56.1216 12.0068C56.3501 11.8018 56.4644 11.5205 56.4644 11.1631C56.4644 10.3926 56.0454 10.0073 55.2075 10.0073H53.8013ZM53.8013 9.33057H55.0757C55.4448 9.33057 55.7393 9.23828 55.959 9.05371C56.1816 8.86914 56.293 8.61865 56.293 8.30225C56.293 7.95068 56.1904 7.6958 55.9854 7.5376C55.7803 7.37646 55.4683 7.2959 55.0493 7.2959H53.8013V9.33057ZM62.0981 11.3301H59.4175L58.8154 13H57.9453L60.3887 6.60156H61.127L63.5747 13H62.709L62.0981 11.3301ZM59.6724 10.6357H61.8477L60.7578 7.64307L59.6724 10.6357ZM69.3535 13H68.5054V10.0425H65.2798V13H64.436V6.60156H65.2798V9.35254H68.5054V6.60156H69.3535V13ZM75.1411 7.2959H73.0845V13H72.2451V7.2959H70.1929V6.60156H75.1411V7.2959ZM79.272 11.3301H76.5913L75.9893 13H75.1191L77.5625 6.60156H78.3008L80.7485 13H79.8828L79.272 11.3301ZM76.8462 10.6357H79.0215L77.9316 7.64307L76.8462 10.6357ZM86.1055 10.082H85.4199V13H84.5762V10.082H83.8511L82.0405 13H80.9858L83.1392 9.625L81.1528 6.60156H82.1504L83.8511 9.37891H84.5762V6.60156H85.4199V9.37891H86.1143L87.8149 6.60156H88.8081L86.8218 9.62061L88.9751 13H87.9248L86.1055 10.082ZM94.2046 7.2959H92.1479V13H91.3086V7.2959H89.2563V6.60156H94.2046V7.2959ZM98.7705 10.0425H95.9976V12.3101H99.2188V13H95.1538V6.60156H99.1748V7.2959H95.9976V9.35254H98.7705V10.0425ZM102.501 13V6.60156H104.593C105.288 6.60156 105.809 6.74512 106.158 7.03223C106.509 7.31934 106.685 7.74414 106.685 8.30664C106.685 8.60547 106.6 8.87061 106.43 9.10205C106.26 9.33057 106.029 9.50781 105.736 9.63379C106.082 9.73047 106.354 9.91504 106.553 10.1875C106.755 10.457 106.856 10.7793 106.856 11.1543C106.856 11.7285 106.67 12.1797 106.298 12.5078C105.926 12.8359 105.4 13 104.721 13H102.501ZM103.345 10.0073V12.3101H104.738C105.131 12.3101 105.44 12.209 105.666 12.0068C105.894 11.8018 106.008 11.5205 106.008 11.1631C106.008 10.3926 105.589 10.0073 104.751 10.0073H103.345ZM103.345 9.33057H104.62C104.989 9.33057 105.283 9.23828 105.503 9.05371C105.726 8.86914 105.837 8.61865 105.837 8.30225C105.837 7.95068 105.734 7.6958 105.529 7.5376C105.324 7.37646 105.012 7.2959 104.593 7.2959H103.345V9.33057Z" fill="white"/>
</svg>
