<svg width="101" height="36" viewBox="0 0 101 36" fill="none" xmlns="http://www.w3.org/2000/svg">
<g clip-path="url(#clip0_1165_3686)">
<path d="M34.1243 10.1397L32.1562 6.57491H31.3626V10.1397H29.458V1.12777H33.0767C33.6278 1.11637 34.1747 1.22467 34.6798 1.4452C35.1073 1.63383 35.4672 1.94831 35.7114 2.34671C35.9587 2.78131 36.0822 3.27533 36.0685 3.77515C36.0885 4.36721 35.9035 4.948 35.5448 5.41945C35.1617 5.8841 34.6372 6.21073 34.0513 6.34953L36.2384 10.1397H34.1243ZM31.361 2.77048V5.06393H32.845C33.1772 5.08493 33.5047 4.97691 33.7592 4.76237C33.8704 4.64827 33.9562 4.51191 34.0109 4.36227C34.0656 4.21264 34.088 4.05311 34.0766 3.89419C34.0766 3.4974 33.9719 3.21012 33.7592 3.03236C33.4899 2.83891 33.1616 2.7452 32.8307 2.76731L31.361 2.77048Z" fill="#2B2D33"/>
<path d="M41.7106 3.12769H43.5263V10.1382H41.7106V9.30333C41.4841 9.62015 41.184 9.87722 40.8361 10.0525C40.4663 10.2373 40.0575 10.3304 39.6441 10.3239C39.0944 10.3295 38.5566 10.163 38.1062 9.84773C37.6407 9.51561 37.276 9.06138 37.0523 8.53515C36.7919 7.93453 36.6631 7.2851 36.6746 6.63055C36.6628 5.97238 36.7915 5.31927 37.0523 4.71485C37.2764 4.18887 37.6411 3.73475 38.1062 3.40226C38.5566 3.08697 39.0944 2.92047 39.6441 2.92612C40.0583 2.91936 40.4676 3.01476 40.8361 3.20387C41.183 3.38344 41.4826 3.64227 41.7106 3.95936V3.12769ZM40.9948 8.4415C41.2454 8.26861 41.441 8.0273 41.5583 7.74633C41.7056 7.39497 41.7759 7.01614 41.7646 6.63531C41.7755 6.25452 41.7052 5.87577 41.5583 5.5243C41.441 5.24333 41.2454 5.00201 40.9948 4.82912C40.7516 4.66883 40.4655 4.58584 40.1743 4.59105C39.8806 4.58649 39.5922 4.66936 39.3458 4.82912C39.0932 4.99988 38.8971 5.24185 38.7823 5.5243C38.6405 5.87706 38.573 6.25527 38.5839 6.63531C38.5726 7.01538 38.6402 7.39367 38.7823 7.74633C38.8966 8.02907 39.0928 8.27118 39.3458 8.4415C39.5917 8.60245 39.8803 8.68593 40.1743 8.68116C40.4658 8.68691 40.7522 8.60328 40.9948 8.4415Z" fill="#2B2D33"/>
<path d="M45.2342 1.84997C45.1345 1.74763 45.0568 1.626 45.0057 1.49254C44.9547 1.35908 44.9315 1.2166 44.9374 1.07384C44.9316 0.931337 44.9549 0.789133 45.0059 0.655949C45.057 0.522765 45.1346 0.401405 45.2342 0.299309C45.3361 0.200203 45.4569 0.122689 45.5895 0.0714151C45.722 0.0201416 45.8636 -0.00383506 46.0056 0.000922944C46.1473 -0.00508902 46.2887 0.0183204 46.4209 0.0696756C46.5532 0.121031 46.6733 0.199218 46.7738 0.299309C46.8721 0.402123 46.9486 0.523714 46.9988 0.656802C47.049 0.789889 47.0718 0.931735 47.0658 1.07384C47.0719 1.21621 47.0491 1.35833 46.999 1.49169C46.9488 1.62505 46.8722 1.74691 46.7738 1.84997C46.6733 1.95006 46.5532 2.02824 46.4209 2.0796C46.2887 2.13095 46.1473 2.15436 46.0056 2.14835C45.8636 2.15311 45.722 2.12913 45.5895 2.07786C45.4569 2.02659 45.3361 1.94907 45.2342 1.84997ZM46.8976 10.1397H45.0755V3.12922H46.8912L46.8976 10.1397Z" fill="#2B2D33"/>
<path d="M50.7763 3.12868H52.6936V4.71584H50.7763V10.1392H48.9606V4.71902H47.7734V3.13186H48.967V2.69856C48.967 1.92932 49.1881 1.34154 49.6304 0.935226C50.0727 0.528913 50.6758 0.327872 51.4398 0.332105C51.7111 0.330439 51.9818 0.357035 52.2476 0.411463C52.4883 0.459539 52.7238 0.530764 52.9508 0.624143L52.4857 2.0145C52.2373 1.91601 51.972 1.86695 51.7048 1.87006C51.3779 1.87006 51.1414 1.94466 50.9954 2.09544C50.8347 2.28734 50.756 2.5348 50.7763 2.78427V3.12868Z" fill="#2B2D33"/>
<path d="M55.4155 3.12917H57.3376V4.71633H55.4155V10.1397H53.5998V4.7195H52.4062V3.13234H53.5998V2.69904C53.5998 1.9298 53.8204 1.34202 54.2616 0.935708C54.7029 0.529395 55.3081 0.326238 56.0774 0.326238C56.3492 0.324658 56.6205 0.351252 56.8868 0.405596C57.127 0.453412 57.362 0.524645 57.5883 0.618276L57.1249 2.00863C56.8759 1.91017 56.6101 1.86112 56.3424 1.8642C56.0155 1.8642 55.779 1.93879 55.6345 2.08957C55.4738 2.28148 55.3952 2.52893 55.4155 2.7784V3.12917Z" fill="#2B2D33"/>
<path d="M64.4023 7.27703H59.6774C59.7387 7.80608 59.9112 8.19017 60.1948 8.42931C60.4773 8.66738 60.8931 8.788 61.4407 8.788C61.7984 8.79406 62.1545 8.74042 62.4946 8.62929C62.8029 8.52589 63.0884 8.36425 63.3358 8.15314L64.1182 9.39906C63.7546 9.70477 63.336 9.93853 62.885 10.0879C62.3978 10.2497 61.8874 10.3301 61.374 10.326C60.6942 10.3444 60.0203 10.1944 59.4123 9.88949C58.8751 9.60839 58.4377 9.16828 58.16 8.62929C57.86 8.02492 57.7124 7.35635 57.7299 6.68184C57.7156 6.00377 57.8608 5.33182 58.1537 4.72011C58.4175 4.17519 58.8345 3.71904 59.3536 3.40753C59.8896 3.09319 60.502 2.93282 61.1233 2.94407C61.7298 2.93142 62.328 3.08688 62.8517 3.39324C63.3517 3.69991 63.7502 4.14705 63.9976 4.67884C64.2797 5.29354 64.4181 5.96441 64.4023 6.64057V7.27703ZM59.6774 6.0311H62.5803C62.5358 5.5084 62.3904 5.11954 62.1438 4.86454C62.0118 4.73385 61.854 4.63217 61.6805 4.56603C61.5069 4.49988 61.3214 4.47073 61.136 4.48045C60.2831 4.48045 59.7969 4.99733 59.6774 6.0311Z" fill="#2B2D33"/>
<path d="M65.6674 1.84991C65.5675 1.74765 65.4895 1.62608 65.4381 1.49262C65.3868 1.35917 65.3633 1.21665 65.369 1.07379C65.3634 0.93118 65.387 0.788935 65.4383 0.655758C65.4896 0.522581 65.5676 0.401272 65.6674 0.299254C65.7696 0.199329 65.8912 0.121325 66.0247 0.0700186C66.1581 0.0187118 66.3006 -0.00481863 66.4435 0.000867806C66.5852 -0.00495168 66.7266 0.0185466 66.8587 0.069891C66.9909 0.121235 67.1111 0.19932 67.2117 0.299254C67.3094 0.402407 67.3854 0.524092 67.4353 0.657122C67.4852 0.790152 67.5079 0.93183 67.5021 1.07379C67.5081 1.21601 67.4855 1.35799 67.4356 1.49131C67.3857 1.62463 67.3096 1.74657 67.2117 1.84991C67.1111 1.94985 66.9909 2.02793 66.8587 2.07927C66.7266 2.13062 66.5852 2.15412 66.4435 2.1483C66.3006 2.15398 66.1581 2.13045 66.0247 2.07915C65.8912 2.02784 65.7696 1.94984 65.6674 1.84991ZM67.3307 10.1397H65.515V3.12916H67.3307V10.1397Z" fill="#2B2D33"/>
<path d="M69.6492 10.0931C69.1787 9.95152 68.7478 9.70207 68.3906 9.36464L69.2382 8.06634C69.5047 8.3145 69.8175 8.50769 70.1588 8.63487C70.5 8.76205 70.863 8.82073 71.2269 8.80755C71.5034 8.82717 71.7802 8.77237 72.0284 8.64883C72.1088 8.59924 72.1757 8.53042 72.2229 8.44857C72.2701 8.36672 72.2962 8.27442 72.2989 8.17996C72.3016 8.08551 72.2807 7.99187 72.2382 7.90748C72.1957 7.82309 72.1329 7.7506 72.0554 7.69653C71.7789 7.53262 71.476 7.41821 71.1602 7.35847C70.6919 7.26196 70.2331 7.12441 69.7889 6.94739C69.4507 6.81229 69.152 6.59391 68.9207 6.31253C68.6883 6.00398 68.571 5.62391 68.589 5.23802C68.5786 4.80375 68.704 4.37705 68.9477 4.01749C69.2036 3.6595 69.5583 3.38375 69.9683 3.22391C70.4567 3.02971 70.9791 2.93527 71.5046 2.94616C72.0201 2.94102 72.5328 3.02147 73.022 3.18423C73.464 3.32971 73.8691 3.56963 74.2092 3.88734L73.36 5.13327C73.1152 4.90859 72.8267 4.73678 72.5125 4.62855C72.1845 4.51404 71.8394 4.45607 71.4919 4.45714C71.2263 4.44111 70.9613 4.49588 70.7238 4.61585C70.6398 4.66284 70.5705 4.73226 70.5237 4.81634C70.4769 4.90042 70.4544 4.99586 70.4587 5.092C70.4531 5.2085 70.4936 5.32251 70.5714 5.40943C70.683 5.51729 70.816 5.60055 70.9618 5.65385C71.2189 5.75659 71.4844 5.83677 71.7554 5.89352C72.1789 5.99004 72.5919 6.12772 72.9886 6.30459C73.3228 6.45545 73.6142 6.6873 73.8362 6.97914C74.0665 7.30264 74.1831 7.69333 74.1679 8.09015C74.1768 8.50926 74.0566 8.92098 73.8235 9.26941C73.5713 9.62315 73.2209 9.89519 72.8156 10.0519C72.3102 10.2487 71.7707 10.3432 71.2285 10.3296C70.6931 10.3313 70.1606 10.2515 69.6492 10.0931Z" fill="#2B2D33"/>
<path d="M81.5908 7.27679H76.8595C76.9214 7.8069 77.0928 8.19099 77.3769 8.42907C77.661 8.66714 78.0737 8.78777 78.6228 8.78777C78.98 8.79382 79.3356 8.74018 79.6751 8.62905C79.9839 8.52559 80.2699 8.36396 80.5179 8.1529L81.2988 9.39882C80.9359 9.70484 80.5178 9.93865 80.0671 10.0877C79.5799 10.2493 79.0695 10.3298 78.5562 10.3257C77.8762 10.3446 77.2022 10.1946 76.5944 9.88926C76.0572 9.60816 75.6199 9.16804 75.3422 8.62905C75.0424 8.02406 74.8953 7.35493 74.9136 6.68002C74.8991 6.00174 75.0448 5.32961 75.339 4.71828C75.6027 4.17385 76.0191 3.71782 76.5373 3.4057C77.0734 3.09152 77.6857 2.93116 78.307 2.94225C78.9164 2.92843 79.5176 3.08451 80.0433 3.393C80.544 3.69879 80.9428 4.14618 81.1893 4.6786C81.4714 5.2933 81.6098 5.96418 81.594 6.64034L81.5908 7.27679ZM76.8595 6.03087H79.7624C79.718 5.50816 79.572 5.11931 79.3244 4.8643C79.1924 4.73353 79.0346 4.6318 78.8611 4.56565C78.6875 4.4995 78.502 4.4704 78.3165 4.48021C77.469 4.48021 76.9833 4.99709 76.8595 6.03087Z" fill="#2B2D33"/>
<path d="M87.9195 3.26764C88.2997 3.48855 88.6028 3.821 88.7877 4.21994C89.0019 4.68801 89.1061 5.19889 89.0924 5.71345V10.1385H87.264V5.93724C87.264 5.48649 87.1582 5.14842 86.9466 4.92305C86.735 4.69767 86.4175 4.58498 85.9943 4.58498C85.6994 4.57907 85.4083 4.65253 85.1515 4.79766C84.8908 4.95639 84.6707 5.17378 84.5087 5.43253V10.1385H82.7041V3.12797H84.5198V3.95012C84.741 3.63185 85.0406 3.37601 85.3896 3.20733C85.7637 3.02742 86.1744 2.9367 86.5895 2.94227C87.0539 2.93031 87.5131 3.04264 87.9195 3.26764Z" fill="#2B2D33"/>
<path d="M35.7115 18.239C35.9765 18.6367 36.1108 19.1072 36.0956 19.5849C36.0956 20.407 35.8311 21.0419 35.3021 21.4895C34.773 21.937 34.0286 22.1603 33.0689 22.1592H29.4502V13.1426H32.7499C33.7022 13.1426 34.4418 13.3489 34.9719 13.76C35.502 14.1711 35.7544 14.752 35.7544 15.5059C35.7544 16.3978 35.3698 17.0385 34.6005 17.4279C35.0464 17.5757 35.4349 17.8593 35.7115 18.239ZM31.3611 14.7599V16.8676H32.6071C33.0118 16.8676 33.3102 16.7804 33.5006 16.6026C33.601 16.4999 33.6784 16.377 33.7277 16.2421C33.7769 16.1072 33.7969 15.9633 33.7863 15.8201C33.7863 15.4403 33.6847 15.1689 33.4816 15.0059C33.2127 14.8233 32.89 14.7366 32.5658 14.7599H31.3611ZM32.8451 20.5388C33.2594 20.5388 33.5721 20.4515 33.78 20.2737C33.9879 20.0959 34.0974 19.815 34.0974 19.4262C34.1089 19.2777 34.0882 19.1285 34.0367 18.9888C33.9852 18.8491 33.9041 18.7222 33.799 18.6167C33.6006 18.4405 33.2705 18.3516 32.8118 18.3516H31.3675V20.5388H32.8451Z" fill="#2B2D33"/>
<path d="M41.8293 15.1441H43.6466V22.1562H41.8293V21.3213C41.6023 21.6378 41.3023 21.8948 40.9548 22.0705C40.585 22.2553 40.1762 22.3484 39.7628 22.3419C39.2131 22.3475 38.6753 22.181 38.2249 21.8657C37.7598 21.5333 37.3951 21.0791 37.171 20.5532C36.6696 19.3329 36.6696 17.9642 37.171 16.744C37.3947 16.2177 37.7594 15.7635 38.2249 15.4314C38.6753 15.1161 39.2131 14.9496 39.7628 14.9552C40.1751 14.9505 40.5822 15.047 40.9485 15.2362C41.2953 15.4157 41.5949 15.6746 41.823 15.9917L41.8293 15.1441ZM41.1151 20.4595C41.3651 20.2864 41.5601 20.0451 41.677 19.7643C41.9541 19.0496 41.9541 18.2571 41.677 17.5423C41.5601 17.2616 41.3651 17.0203 41.1151 16.8471C40.8713 16.6865 40.5849 16.603 40.293 16.6075C39.9991 16.6035 39.7108 16.6869 39.4645 16.8471C39.2115 17.0175 39.0153 17.2596 38.901 17.5423C38.6346 18.259 38.6346 19.0476 38.901 19.7643C39.0153 20.0471 39.2115 20.2892 39.4645 20.4595C39.7109 20.6193 39.9993 20.7022 40.293 20.6976C40.5847 20.7026 40.8712 20.6197 41.1151 20.4595Z" fill="#2B2D33"/>
<path d="M50.4117 15.2836C50.7912 15.5054 51.094 15.8376 51.2799 16.2359C51.4945 16.7055 51.5988 17.2181 51.5846 17.7342V22.156H49.7562V17.9548C49.7562 17.5041 49.6504 17.166 49.4388 16.9406C49.2271 16.7153 48.9097 16.6026 48.4865 16.6026C48.1916 16.5969 47.9006 16.6703 47.6437 16.8152C47.3826 16.9736 47.1624 17.191 47.0009 17.4501V22.156H45.1963V15.144H47.012V15.9661C47.2335 15.6485 47.5331 15.3933 47.8818 15.2249C48.255 15.0441 48.6654 14.9533 49.0801 14.9599C49.5448 14.9479 50.0043 15.0596 50.4117 15.2836Z" fill="#2B2D33"/>
<path d="M56.5683 18.4191L59.3776 22.1569H57.2048L54.805 18.9826V22.1569H52.9893V12.6133H54.805V17.9953L57.0857 15.1385H59.2459L56.5683 18.4191Z" fill="#2B2D33"/>
<path fill-rule="evenodd" clip-rule="evenodd" d="M4.76148 9.54074L1.00943 5.7871L0 6.79178C0.039032 5.06106 0.744629 3.4122 1.96967 2.18901C3.9679 0.244737 5.95979 1.38273 6.64703 2.06362L10.261 5.68394L9.36425 6.5791L11.3323 8.54559L13.2988 6.5791L12.4037 5.68394L16.0192 2.06362C16.708 1.37797 18.7031 0.239975 20.6966 2.18425C21.9223 3.40697 22.628 5.05612 22.6663 6.78702L21.6616 5.78234L17.9032 9.54074L16.8684 8.5075V6.03153L15.8065 7.09493V10.0883L14.34 11.5533L21.9393 19.1526L18.9317 22.1682L11.3323 14.5609L3.733 22.1603L0.725333 19.1447L8.32466 11.5533L6.85971 10.0883V7.0981L5.79631 6.03153V8.5075L4.76148 9.54074Z" fill="#2B2D33"/>
<path d="M33.267 29.9983C33.267 31.1776 32.5845 31.8061 31.3433 31.8061H30.2323V34.2265H29.4609V28.1953H31.3782C32.5924 28.1985 33.267 28.8191 33.267 29.9983ZM31.2893 31.1411C32.0829 31.1411 32.4686 30.7776 32.4686 29.9983C32.4686 29.219 32.0877 28.8873 31.2893 28.8873H30.2339V31.1411H31.2893Z" fill="#2B2D33"/>
<path d="M37.2398 29.6339H37.9746V34.2256H37.2398V33.4463C37.1031 33.718 36.8921 33.9454 36.6315 34.1021C36.3708 34.2589 36.071 34.3386 35.7669 34.3319C34.6559 34.3319 33.8623 33.3796 33.8623 31.9289C33.8623 30.4783 34.6559 29.5276 35.7669 29.5276C36.0707 29.5226 36.3698 29.603 36.6301 29.7595C36.8905 29.9161 37.1017 30.1426 37.2398 30.4132V29.6339ZM37.2747 31.9289C37.2747 30.8386 36.7335 30.2005 35.9621 30.2005C35.1685 30.2005 34.6321 30.8354 34.6321 31.9289C34.6321 33.0225 35.1638 33.6589 35.9621 33.6589C36.7335 33.6589 37.2747 33.0209 37.2747 31.9289Z" fill="#2B2D33"/>
<path d="M42.3186 32.9761C42.3186 33.7919 41.6838 34.3316 40.5632 34.3316C39.8808 34.3316 39.3221 34.1284 38.9062 33.711L39.3141 33.2142C39.4809 33.3717 39.677 33.4949 39.8913 33.5766C40.1056 33.6583 40.334 33.6969 40.5632 33.6903C41.2283 33.6903 41.5838 33.3983 41.5838 32.9285C41.5838 32.4587 41.2457 32.1746 40.5553 32.1746H39.8982V31.5715H40.5728C41.1759 31.5715 41.4854 31.2795 41.4854 30.8541C41.4854 30.4287 41.1584 30.1621 40.5728 30.1621C40.1228 30.1522 39.6873 30.3212 39.3618 30.6319L38.9808 30.1446C39.1982 29.9368 39.455 29.7746 39.736 29.6674C40.017 29.5603 40.3166 29.5105 40.6172 29.5209C41.6362 29.5209 42.2044 30.0431 42.2044 30.7906C42.2116 31.0092 42.1541 31.225 42.0392 31.4111C41.9243 31.5971 41.7571 31.7451 41.5584 31.8365C41.7892 31.9218 41.9871 32.0781 42.1237 32.2828C42.2603 32.4875 42.3285 32.7302 42.3186 32.9761Z" fill="#2B2D33"/>
<path d="M43.0029 31.9287C43.0029 30.4574 43.8981 29.5273 45.1472 29.5273C46.3963 29.5273 47.2851 30.4574 47.2851 31.9287C47.2851 33.4 46.3883 34.3317 45.1472 34.3317C43.906 34.3317 43.0029 33.4016 43.0029 31.9287ZM46.5137 31.9287C46.5137 30.8383 45.9804 30.2003 45.1472 30.2003C44.3139 30.2003 43.7727 30.8352 43.7727 31.9287C43.7727 33.0223 44.306 33.6587 45.1472 33.6587C45.9884 33.6587 46.5137 33.0207 46.5137 31.9287Z" fill="#2B2D33"/>
<path d="M53.3289 34.2264H52.6099V30.5125L51.1481 34.2264H50.5006L49.0277 30.5125V34.2264H48.3008V29.6348H49.3562L50.8196 33.3043L52.2909 29.6348H53.3289V34.2264Z" fill="#2B2D33"/>
<path d="M59.7948 32.9763C59.7948 33.7921 59.16 34.3317 58.0394 34.3317C57.3554 34.3317 56.7983 34.1285 56.3809 33.7111L56.7888 33.2143C56.9557 33.372 57.1521 33.4953 57.3667 33.577C57.5813 33.6587 57.8099 33.6973 58.0394 33.6905C58.7045 33.6905 59.0584 33.3984 59.0584 32.9286C59.0584 32.4588 58.7219 32.1747 58.0299 32.1747H57.3744V31.5716H58.0474C58.6505 31.5716 58.9616 31.2796 58.9616 30.8542C58.9616 30.4289 58.633 30.1622 58.0474 30.1622C57.6004 30.151 57.167 30.3164 56.8411 30.6225L56.4602 30.1352C56.6776 29.9299 56.9337 29.7699 57.2135 29.6644C57.4934 29.559 57.7914 29.5102 58.0902 29.521C59.1108 29.521 59.6869 30.0432 59.6869 30.7907C59.694 31.0095 59.6363 31.2254 59.5211 31.4115C59.4059 31.5976 59.2383 31.7455 59.0394 31.8367C59.2693 31.9228 59.4662 32.0793 59.6019 32.284C59.7375 32.4886 59.8051 32.7309 59.7948 32.9763Z" fill="#2B2D33"/>
<path d="M66.2406 28.1973H67.0342L65.0518 33.0127C64.6614 33.9523 64.2011 34.3332 63.4646 34.3332C63.2522 34.3371 63.0412 34.2982 62.8441 34.219V33.527C63.0246 33.5995 63.2177 33.6357 63.4123 33.6333C63.8884 33.6333 64.1662 33.4032 64.4138 32.7651L64.5106 32.5159L62.4473 28.1989H63.271L64.8582 31.6557L66.2406 28.1973Z" fill="#2B2D33"/>
<path d="M71.2638 34.2264H70.3495L68.3418 32.0615V34.2328H67.6133V29.6348H68.3402V31.6727L70.2988 29.6348H71.1765L69.0751 31.833L71.2638 34.2264Z" fill="#2B2D33"/>
<path d="M76.1348 31.9282C76.1348 33.3836 75.3412 34.3311 74.2302 34.3311C73.9242 34.336 73.6231 34.2546 73.3612 34.0963C73.0993 33.938 72.8873 33.7091 72.7494 33.436V35.9992H72.0225V29.6331H72.7494V30.4267C72.8857 30.1517 73.0972 29.9209 73.3593 29.7611C73.6213 29.6013 73.9233 29.519 74.2302 29.5236C75.346 29.5205 76.1348 30.4839 76.1348 31.9282ZM75.3634 31.9282C75.3634 30.8378 74.8222 30.1998 74.0429 30.1998C73.2636 30.1998 72.7208 30.8346 72.7208 31.9282C72.7208 33.0217 73.2525 33.6582 74.0429 33.6582C74.8333 33.6582 75.3634 33.0201 75.3634 31.9282Z" fill="#2B2D33"/>
<path d="M80.187 29.6339H80.9219V34.2256H80.187V33.4463C80.0503 33.718 79.8394 33.9454 79.5787 34.1021C79.318 34.2589 79.0183 34.3386 78.7142 34.3319C77.6032 34.3319 76.8096 33.3796 76.8096 31.9289C76.8096 30.4783 77.6032 29.5276 78.7142 29.5276C79.0179 29.5226 79.317 29.603 79.5774 29.7595C79.8378 29.9161 80.049 30.1426 80.187 30.4132V29.6339ZM80.222 31.9289C80.222 30.8386 79.6807 30.2005 78.9094 30.2005C78.1158 30.2005 77.5793 30.8354 77.5793 31.9289C77.5793 33.0225 78.1126 33.6589 78.9094 33.6589C79.676 33.6589 80.222 33.0209 80.222 31.9289Z" fill="#2B2D33"/>
<path d="M81.5513 28.2508C81.556 28.1625 81.5864 28.0775 81.6389 28.0063C81.6913 27.9351 81.7635 27.8809 81.8464 27.8502C81.9294 27.8196 82.0195 27.814 82.1056 27.834C82.1917 27.8541 82.2701 27.899 82.331 27.9631C82.3919 28.0272 82.4327 28.1077 82.4483 28.1948C82.4639 28.2818 82.4537 28.3715 82.4188 28.4528C82.384 28.534 82.3261 28.6033 82.2523 28.6521C82.1786 28.7008 82.0921 28.7268 82.0037 28.7269C81.9417 28.729 81.88 28.7178 81.8226 28.6943C81.7652 28.6707 81.7134 28.6353 81.6707 28.5903C81.628 28.5454 81.5953 28.4919 81.5747 28.4333C81.5541 28.3748 81.5462 28.3126 81.5513 28.2508ZM82.2608 34.2265V29.6332H82.9877V34.2249L82.2608 34.2265ZM82.802 28.2508C82.8067 28.1624 82.8372 28.0774 82.8897 28.0061C82.9422 27.9349 83.0145 27.8807 83.0975 27.8501C83.1805 27.8195 83.2707 27.814 83.3569 27.8342C83.443 27.8544 83.5214 27.8994 83.5822 27.9636C83.6431 28.0279 83.6837 28.1086 83.6991 28.1957C83.7146 28.2829 83.7041 28.3726 83.669 28.4539C83.634 28.5351 83.5759 28.6043 83.5019 28.6528C83.4279 28.7014 83.3413 28.7271 83.2528 28.7269C83.1911 28.728 83.1299 28.7162 83.0731 28.6923C83.0162 28.6684 82.965 28.6329 82.9226 28.5881C82.8802 28.5433 82.8475 28.4902 82.8268 28.4321C82.806 28.3741 82.7976 28.3123 82.802 28.2508Z" fill="#2B2D33"/>
<path d="M87.3045 29.6348H88.0505V34.2264H87.3045V32.1964H85.0619V34.2264H84.335V29.6348H85.0619V31.5314H87.3045V29.6348Z" fill="#2B2D33"/>
<path d="M89.0527 31.9287C89.0527 30.4574 89.9479 29.5273 91.1986 29.5273C92.4493 29.5273 93.3349 30.4574 93.3349 31.9287C93.3349 33.4 92.4397 34.3317 91.1986 34.3317C89.9574 34.3317 89.0527 33.4016 89.0527 31.9287ZM92.5635 31.9287C92.5635 30.8383 92.0318 30.2003 91.1986 30.2003C90.3653 30.2003 89.8241 30.8352 89.8241 31.9287C89.8241 33.0223 90.3558 33.6587 91.1986 33.6587C92.0414 33.6587 92.5635 33.0207 92.5635 31.9287Z" fill="#2B2D33"/>
<path d="M100.267 31.9288C100.267 33.4366 99.3814 34.3317 98.1847 34.3317C97.0737 34.3317 96.2245 33.5381 96.1214 32.1859H95.0707V34.2254H94.3438V29.6337H95.0707V31.5304H96.1341C96.2769 30.2606 97.1007 29.5274 98.1831 29.5274C99.3814 29.521 100.267 30.4225 100.267 31.9288ZM99.4877 31.9288C99.4877 30.8177 98.9735 30.2003 98.1847 30.2003C97.3959 30.2003 96.8896 30.813 96.8896 31.9288C96.8896 33.0445 97.4038 33.6588 98.1847 33.6588C98.9656 33.6588 99.4877 33.0461 99.4877 31.9288Z" fill="#2B2D33"/>
</g>
<defs>
<clipPath id="clip0_1165_3686">
<rect width="100.267" height="36" fill="white"/>
</clipPath>
</defs>
</svg>
