<svg width="24" height="24" viewBox="0 0 24 24" fill="none" xmlns="http://www.w3.org/2000/svg">
<circle cx="11.5" cy="10.6" r="2.5" stroke="#828282" stroke-width="1.5" stroke-linecap="round" stroke-linejoin="round"/>
<path d="M21 14V6.09998C21 4.99998 20.1 4.09998 19 4.09998H4C2.9 4.09998 2 4.99998 2 6.09998V15.1C2 16.2 2.9 17.1 4 17.1H12.3" stroke="#828282" stroke-width="1.5" stroke-linecap="round" stroke-linejoin="round"/>
<path d="M5 14.1H7" stroke="#828282" stroke-width="1.5" stroke-linecap="round" stroke-linejoin="round"/>
<path d="M16 7.09998H18" stroke="#828282" stroke-width="1.5" stroke-linecap="round" stroke-linejoin="round"/>
<path d="M15.4 15C13.5 15.1 12 16.6 12 18.5C12 20.4 13.6 22 15.5 22C16.9 22 18.1 21.2 18.6 20" stroke="#828282" stroke-width="1.5" stroke-linecap="round" stroke-linejoin="round"/>
<path d="M18.5 19.9C16.6 19.9 15 18.3 15 16.4C15 14.5 16.6 12.9 18.5 12.9C20.4 12.9 22 14.5 22 16.4C22 18.3 20.5 19.9 18.5 19.9" stroke="#828282" stroke-width="1.5" stroke-linecap="round" stroke-linejoin="round"/>
</svg>
